<?xml version="1.0" encoding="utf-8"?>
<!-- Svg Vector Icons : http://www.onlinewebfonts.com/icon -->
<!DOCTYPE svg PUBLIC "-//W3C//DTD SVG 1.1//EN" "http://www.w3.org/Graphics/SVG/1.1/DTD/svg11.dtd">
<svg version="1.1" xmlns="http://www.w3.org/2000/svg" xmlns:xlink="http://www.w3.org/1999/xlink" x="0px" y="0px" viewBox="0 0 256 256" enable-background="new 0 0 256 256" xml:space="preserve">
<metadata> Svg Vector Icons : http://www.onlinewebfonts.com/icon </metadata>
<g><g><g><path fill="#000000" d="M129.1,124.7c6.1-3.2,8.9-8.1,8.3-14.8c-0.5-6.7-3.3-12.3-8.3-16.7c-7.3-5.7-15.5-7.4-24.4-5.2c-8.9,2.2-15.7,7.4-20.3,15.6c-5.9,10.9-7.3,21.2-4.4,30.8c2.9,9.6,9.1,17.7,18.5,24.2c9.4,6.5,19.6,9.5,30.5,9.1c17.2-1.3,30.5-9.2,40.1-23.7c9.5-14.6,12.3-30.2,8.3-47c-4.4-19.3-15.5-33.5-33.2-42.6c-17.7-9.1-35.9-10.6-54.5-4.6c-16.8,5-30,15.3-39.8,30.8c-9.8,15.5-14,32.3-12.7,50.3c1.9,19.5,9.6,36.4,23.1,50.8c13.5,14.4,29.8,23.2,48.9,26.6c18.5,3.4,36.4,1.2,53.7-6.6c17.3-7.8,30.8-19.5,40.7-35.2c10.5-16.5,15.7-33.1,15.7-49.7c0-3.3,1.5-6.3,4.4-9c2.9-2.6,6.3-3.6,10.1-3c4.8,0,8.2,1.9,10.1,5.8c1.9,3.9,2.5,8.1,1.9,12.7c-2.7,31-15.9,57.5-39.6,79.5c-23.7,22-51.1,33-82.4,33c-15.1,0-29.6-3-43.7-9.1c-14-6.1-26-14.2-36-24.4c-9.9-10.2-18.1-21.9-24.5-35.2C13.2,154,10,140,10,125.4c0-14.6,3-29.3,9.1-44.2c8-17.2,19.8-31.1,35.5-41.8c15.7-10.7,32.1-17,49-18.9c17-1.9,33.8,0.9,50.4,8.5s29.7,19.7,39.1,36.5c9.8,16.1,13.8,34,11.8,53.6c-2,19.6-9.8,36.2-23.4,49.8c-13.2,13.2-29.3,20.8-48.4,22.6c-19.1,1.9-36.6-2.6-52.5-13.5c-14.9-10.7-23.9-25.3-27-43.7c-3.2-18.4,1.1-35.3,12.6-50.6c7.3-9.8,17-16.6,29.1-20.3c12-3.7,23.9-3.5,35.7,0.6c11.7,4.1,20.8,11.6,27,22.5c3.6,6.1,5.4,13.1,5.5,20.9c0.1,7.8-1.3,15.1-4.1,21.8c-2.8,6.7-7.3,12.2-13.5,16.4c-6.2,4.2-13.1,5.9-20.9,5c-10.9,0-19.6-4.6-26.2-13.8c-6.6-9.2-7-18.5-1.1-28c4.2-5.7,9.5-8.1,16-7.4c6.5,0.7,11.2,3.6,14.1,8.6c0.8,3.2,1.4,5.9,1.6,8.3c0.2,2.4,0.2,4,0,4.9L129.1,124.7z"/></g></g></g>
</svg>